<?xml version="1.0" encoding="UTF-8" standalone="no"?>
<!-- Created with Inkscape (http://www.inkscape.org/) -->

<svg
   width="98.476707mm"
   height="97.349197mm"
   viewBox="0 0 98.476707 97.349194"
   version="1.1"
   id="svg1"
   xmlns="http://www.w3.org/2000/svg"
   xmlns:svg="http://www.w3.org/2000/svg">
  <defs
     id="defs1" />
  <g
     id="layer1"
     style="display:none"
     transform="translate(-98.800664,-55.864422)">
    <rect
       style="fill:none;stroke:#000000;stroke-width:0.263055;stroke-dasharray:none;stroke-opacity:1"
       id="rect22"
       width="158.48691"
       height="158.48691"
       x="-183.78241"
       y="68.795578"
       transform="rotate(-90)" />
    <circle
       style="fill:none;stroke:#000000;stroke-width:0.263055;stroke-dasharray:none;stroke-opacity:1"
       id="circle22"
       cx="-104.53907"
       cy="148.039"
       r="79.243454"
       transform="rotate(-90)" />
    <rect
       style="fill:none;stroke:#000000;stroke-width:0.263055;stroke-dasharray:none;stroke-opacity:1"
       id="rect23"
       width="158.48691"
       height="158.48691"
       x="-183.78241"
       y="68.795578"
       transform="rotate(-90)" />
  </g>
  <g
     id="layer2"
     transform="translate(-98.800664,-34.697755)">
    <g
       id="g26"
       transform="matrix(1.2234889,0,0,1.2234889,-33.649087,1.8774414)">
      <path
         id="path18"
         style="fill:#ffb700;fill-opacity:1;stroke:none;stroke-width:0.0831551"
         d="m 148.39514,45.292784 c -2.86854,-0.0086 -5.35082,-3.4e-5 -6.34457,0.02048 l -0.19028,6.71e-4 0.002,0.0034 c -0.17275,0.0052 -0.26799,0.01032 -0.27384,0.01721 -0.0439,0.04456 -25.43986,58.329325 -26.48624,60.786995 l -0.11528,0.27052 6.79677,-0.0212 6.79744,-0.0212 4.58686,-10.540927 c 0.8113,-0.30219 2.01769,-0.74531 2.65412,-0.97266 9.13905,-3.264587 16.39285,-4.838637 25.20656,-5.470024 l 7.39086,16.983611 6.79676,0.0212 6.79677,0.0212 -0.11476,-0.27052 c -1.04636,-2.45767 -26.4423,-60.742344 -26.48624,-60.786995 -0.007,-0.0052 -0.10117,-0.01204 -0.27382,-0.01721 l 0.001,-0.0034 -0.18697,-6.71e-4 c -0.99128,-0.02065 -3.47511,-0.0296 -6.34723,-0.02048 h -0.1053 z m 0.10479,15.2803 6.63962,15.259071 4.1612,9.562934 c -1.01719,-0.15726 -1.92388,-0.27625 -2.94586,-0.38788 -6.33596,-0.6918 -13.15761,-0.51793 -18.45024,0.47075 -0.10014,0.0187 -0.18738,0.0354 -0.26323,0.0497 l 4.21889,-9.695554 z" />
      <path
         style="fill:#ffb700;fill-opacity:1;stroke:none;stroke-width:22.7891;stroke-dasharray:0.236223, 0.708671;stroke-dashoffset:0;stroke-opacity:1;paint-order:fill markers stroke"
         d="m 187.47377,47.302874 c -4.24176,-2.451163 -11.15625,-5.336518 -16.53565,-6.900179 -6.93893,-2.016977 -12.69938,-2.906872 -20.19711,-3.120112 -10.11179,-0.287589 -19.16872,1.067683 -28.46493,4.259471 -3.83283,1.315974 -6.45463,2.449893 -10.63486,4.599525 -1.80034,0.925803 -3.31916,1.637463 -3.37516,1.581464 -0.22389,-0.223882 3.26063,-4.403947 5.61703,-6.73827 7.63548,-7.563916 17.19253,-12.292777 27.92783,-13.818772 3.22632,-0.458613 9.84458,-0.453549 13.23305,0.01013 10.97982,1.502479 21.35151,6.829603 28.97297,14.881146 1.83797,1.941692 4.89555,5.743794 4.72004,5.869379 -0.0452,0.03231 -0.6136,-0.248388 -1.26321,-0.623779 z"
         id="path19" />
    </g>
  </g>
</svg>
